<svg xmlns="http://www.w3.org/2000/svg" xmlns:xlink="http://www.w3.org/1999/xlink" version="1.1" width="728" height="548" name="NMT1 Tree.svg" y="0" viewBox="0 0 728 548">
<polyline points="728,548 0,548 0,0 728,0 728,548" fill="white" />
<text x="593" y="38" fill="#000000" font-size="15" font-family="Arial" > ScTHI5</text>
<polyline points="512,42 512,31 591,31" fill="none" stroke="#000000" stroke-width="1" stroke-linecap="square"/>
<text x="578" y="60" fill="#000000" font-size="15" font-family="Arial" > NcNMT1</text>
<polyline points="512,43 512,53 576,53" fill="none" stroke="#000000" stroke-width="1" stroke-linecap="square"/>
<polyline points="178,72 178,42 512,42" fill="none" stroke="#000000" stroke-width="1" stroke-linecap="square"/>
<text x="479" y="82" fill="#000000" font-size="15" font-family="Arial" > BhThiY</text>
<polyline points="228,103 228,75 477,75" fill="none" stroke="#000000" stroke-width="1" stroke-linecap="square"/>
<text x="582" y="104" fill="#000000" font-size="15" font-family="Arial" > FsNMT1</text>
<polyline points="502,108 502,97 580,97" fill="none" stroke="#000000" stroke-width="1" stroke-linecap="square"/>
<text x="612" y="126" fill="#000000" font-size="15" font-family="Arial" > FsNMT1(2)</text>
<polyline points="502,109 502,119 610,119" fill="none" stroke="#000000" stroke-width="1" stroke-linecap="square"/>
<polyline points="382,132 382,108 502,108" fill="none" stroke="#000000" stroke-width="1" stroke-linecap="square"/>
<text x="606" y="148" fill="#000000" font-size="15" font-family="Arial" > MpNMT1</text>
<polyline points="452,157 452,141 604,141" fill="none" stroke="#000000" stroke-width="1" stroke-linecap="square"/>
<text x="554" y="170" fill="#000000" font-size="15" font-family="Arial" > CrNMT1</text>
<polyline points="508,174 508,163 552,163" fill="none" stroke="#000000" stroke-width="1" stroke-linecap="square"/>
<text x="536" y="192" fill="#000000" font-size="15" font-family="Arial" > VcNMT1</text>
<polyline points="508,175 508,185 534,185" fill="none" stroke="#000000" stroke-width="1" stroke-linecap="square"/>
<polyline points="452,158 452,174 508,174" fill="none" stroke="#000000" stroke-width="1" stroke-linecap="square"/>
<polyline points="382,133 382,157 452,157" fill="none" stroke="#000000" stroke-width="1" stroke-linecap="square"/>
<polyline points="228,104 228,132 382,132" fill="none" stroke="#000000" stroke-width="1" stroke-linecap="square"/>
<polyline points="178,73 178,103 228,103" fill="none" stroke="#000000" stroke-width="1" stroke-linecap="square"/>
<polyline points="113,217 113,72 178,72" fill="none" stroke="#000000" stroke-width="1" stroke-linecap="square"/>
<text x="428" y="214" fill="#000000" font-size="15" font-family="Arial" > PtNMT1</text>
<polyline points="342,255 342,207 426,207" fill="none" stroke="#000000" stroke-width="1" stroke-linecap="square"/>
<text x="451" y="236" fill="#000000" font-size="15" font-family="Arial" > TpNMT1</text>
<polyline points="409,240 409,229 449,229" fill="none" stroke="#000000" stroke-width="1" stroke-linecap="square"/>
<text x="460" y="258" fill="#000000" font-size="15" font-family="Arial" > BacNMT1</text>
<polyline points="409,241 409,251 458,251" fill="none" stroke="#000000" stroke-width="1" stroke-linecap="square"/>
<polyline points="408,256 408,240 409,240" fill="none" stroke="#000000" stroke-width="1" stroke-linecap="square"/>
<text x="476" y="280" fill="#000000" font-size="15" font-family="Arial" > ToNMT1</text>
<polyline points="408,257 408,273 474,273" fill="none" stroke="#000000" stroke-width="1" stroke-linecap="square"/>
<polyline points="387,275 387,256 408,256" fill="none" stroke="#000000" stroke-width="1" stroke-linecap="square"/>
<text x="437" y="302" fill="#000000" font-size="15" font-family="Arial" > GtNMT1</text>
<polyline points="387,276 387,295 435,295" fill="none" stroke="#000000" stroke-width="1" stroke-linecap="square"/>
<polyline points="371,304 371,275 387,275" fill="none" stroke="#000000" stroke-width="1" stroke-linecap="square"/>
<text x="429" y="324" fill="#000000" font-size="15" font-family="Arial" > AgNMT1</text>
<polyline points="385,333 385,317 427,317" fill="none" stroke="#000000" stroke-width="1" stroke-linecap="square"/>
<text x="455" y="346" fill="#000000" font-size="15" font-family="Arial" > FcNMT1</text>
<polyline points="423,350 423,339 453,339" fill="none" stroke="#000000" stroke-width="1" stroke-linecap="square"/>
<text x="473" y="368" fill="#000000" font-size="15" font-family="Arial" > PmNMT1</text>
<polyline points="423,351 423,361 471,361" fill="none" stroke="#000000" stroke-width="1" stroke-linecap="square"/>
<polyline points="385,334 385,350 423,350" fill="none" stroke="#000000" stroke-width="1" stroke-linecap="square"/>
<polyline points="371,305 371,333 385,333" fill="none" stroke="#000000" stroke-width="1" stroke-linecap="square"/>
<polyline points="342,256 342,304 371,304" fill="none" stroke="#000000" stroke-width="1" stroke-linecap="square"/>
<polyline points="323,319 323,255 342,255" fill="none" stroke="#000000" stroke-width="1" stroke-linecap="square"/>
<text x="394" y="390" fill="#000000" font-size="15" font-family="Arial" > LaNMT1</text>
<polyline points="323,320 323,383 392,383" fill="none" stroke="#000000" stroke-width="1" stroke-linecap="square"/>
<polyline points="290,362 290,319 323,319" fill="none" stroke="#000000" stroke-width="1" stroke-linecap="square"/>
<text x="378" y="412" fill="#000000" font-size="15" font-family="Arial" > EhNMT1</text>
<polyline points="290,363 290,405 376,405" fill="none" stroke="#000000" stroke-width="1" stroke-linecap="square"/>
<polyline points="113,218 113,362 290,362" fill="none" stroke="#000000" stroke-width="1" stroke-linecap="square"/>
<polyline points="40,322 40,217 113,217" fill="none" stroke="#000000" stroke-width="1" stroke-linecap="square"/>
<text x="613" y="434" fill="#000000" font-size="15" font-family="Arial" > EcSSUA</text>
<polyline points="40,323 40,427 611,427" fill="none" stroke="#000000" stroke-width="1" stroke-linecap="square"/>
<text x="490" y="190" fill="#000000" font-size="11" font-family="Tahoma" >98</text>
<text x="488" y="37" fill="#000000" font-size="11" font-family="Tahoma" >100</text>
<text x="484" y="103" fill="#000000" font-size="11" font-family="Tahoma" >97</text>
<text x="434" y="173" fill="#000000" font-size="11" font-family="Tahoma" >93</text>
<text x="364" y="148" fill="#000000" font-size="11" font-family="Tahoma" >97</text>
<text x="210" y="119" fill="#000000" font-size="11" font-family="Tahoma" >57</text>
<text x="160" y="67" fill="#000000" font-size="11" font-family="Tahoma" >45</text>
<text x="399" y="366" fill="#000000" font-size="11" font-family="Tahoma" >100</text>
<text x="272" y="378" fill="#000000" font-size="11" font-family="Tahoma" >92</text>
<text x="324" y="250" fill="#000000" font-size="11" font-family="Tahoma" >33</text>
<text x="305" y="314" fill="#000000" font-size="11" font-family="Tahoma" >54</text>
<text x="367" y="349" fill="#000000" font-size="11" font-family="Tahoma" >45</text>
<text x="353" y="320" fill="#000000" font-size="11" font-family="Tahoma" >49</text>
<text x="369" y="270" fill="#000000" font-size="11" font-family="Tahoma" >49</text>
<text x="390" y="251" fill="#000000" font-size="11" font-family="Tahoma" >69</text>
<text x="395" y="235" fill="#000000" font-size="11" font-family="Tahoma" >21</text>
<line x1="60" y1="464" x2="196" y2="464" stroke="#000000" stroke-width="1" stroke-linecap="square"/>
<line x1="60" y1="460" x2="60" y2="468" stroke="#000000" stroke-width="1" stroke-linecap="square"/>
<line x1="196" y1="460" x2="196" y2="468" stroke="#000000" stroke-width="1" stroke-linecap="square"/>
<text x="117" y="494" fill="#000000" font-size="11" font-family="MS Sans Serif" >0.50</text>
<text x="593" y="38" fill="#000000" font-size="15" font-family="Arial" > ScTHI5</text>
<polyline points="512,42 512,31 591,31" fill="none" stroke="#000000" stroke-width="1" stroke-linecap="square"/>
<text x="578" y="60" fill="#000000" font-size="15" font-family="Arial" > NcNMT1</text>
<polyline points="512,43 512,53 576,53" fill="none" stroke="#000000" stroke-width="1" stroke-linecap="square"/>
<polyline points="178,72 178,42 512,42" fill="none" stroke="#000000" stroke-width="1" stroke-linecap="square"/>
<text x="479" y="82" fill="#000000" font-size="15" font-family="Arial" > BhThiY</text>
<polyline points="228,103 228,75 477,75" fill="none" stroke="#000000" stroke-width="1" stroke-linecap="square"/>
<text x="582" y="104" fill="#000000" font-size="15" font-family="Arial" > FsNMT1</text>
<polyline points="502,108 502,97 580,97" fill="none" stroke="#000000" stroke-width="1" stroke-linecap="square"/>
<text x="612" y="126" fill="#000000" font-size="15" font-family="Arial" > FsNMT1(2)</text>
<polyline points="502,109 502,119 610,119" fill="none" stroke="#000000" stroke-width="1" stroke-linecap="square"/>
<polyline points="382,132 382,108 502,108" fill="none" stroke="#000000" stroke-width="1" stroke-linecap="square"/>
<text x="606" y="148" fill="#000000" font-size="15" font-family="Arial" > MpNMT1</text>
<polyline points="452,157 452,141 604,141" fill="none" stroke="#000000" stroke-width="1" stroke-linecap="square"/>
<text x="554" y="170" fill="#000000" font-size="15" font-family="Arial" > CrNMT1</text>
<polyline points="508,174 508,163 552,163" fill="none" stroke="#000000" stroke-width="1" stroke-linecap="square"/>
<text x="536" y="192" fill="#000000" font-size="15" font-family="Arial" > VcNMT1</text>
<polyline points="508,175 508,185 534,185" fill="none" stroke="#000000" stroke-width="1" stroke-linecap="square"/>
<polyline points="452,158 452,174 508,174" fill="none" stroke="#000000" stroke-width="1" stroke-linecap="square"/>
<polyline points="382,133 382,157 452,157" fill="none" stroke="#000000" stroke-width="1" stroke-linecap="square"/>
<polyline points="228,104 228,132 382,132" fill="none" stroke="#000000" stroke-width="1" stroke-linecap="square"/>
<polyline points="178,73 178,103 228,103" fill="none" stroke="#000000" stroke-width="1" stroke-linecap="square"/>
<polyline points="113,217 113,72 178,72" fill="none" stroke="#000000" stroke-width="1" stroke-linecap="square"/>
<text x="428" y="214" fill="#000000" font-size="15" font-family="Arial" > PtNMT1</text>
<polyline points="342,255 342,207 426,207" fill="none" stroke="#000000" stroke-width="1" stroke-linecap="square"/>
<text x="451" y="236" fill="#000000" font-size="15" font-family="Arial" > TpNMT1</text>
<polyline points="409,240 409,229 449,229" fill="none" stroke="#000000" stroke-width="1" stroke-linecap="square"/>
<text x="460" y="258" fill="#000000" font-size="15" font-family="Arial" > BacNMT1</text>
<polyline points="409,241 409,251 458,251" fill="none" stroke="#000000" stroke-width="1" stroke-linecap="square"/>
<polyline points="408,256 408,240 409,240" fill="none" stroke="#000000" stroke-width="1" stroke-linecap="square"/>
<text x="476" y="280" fill="#000000" font-size="15" font-family="Arial" > ToNMT1</text>
<polyline points="408,257 408,273 474,273" fill="none" stroke="#000000" stroke-width="1" stroke-linecap="square"/>
<polyline points="387,275 387,256 408,256" fill="none" stroke="#000000" stroke-width="1" stroke-linecap="square"/>
<text x="437" y="302" fill="#000000" font-size="15" font-family="Arial" > GtNMT1</text>
<polyline points="387,276 387,295 435,295" fill="none" stroke="#000000" stroke-width="1" stroke-linecap="square"/>
<polyline points="371,304 371,275 387,275" fill="none" stroke="#000000" stroke-width="1" stroke-linecap="square"/>
<text x="429" y="324" fill="#000000" font-size="15" font-family="Arial" > AgNMT1</text>
<polyline points="385,333 385,317 427,317" fill="none" stroke="#000000" stroke-width="1" stroke-linecap="square"/>
<text x="455" y="346" fill="#000000" font-size="15" font-family="Arial" > FcNMT1</text>
<polyline points="423,350 423,339 453,339" fill="none" stroke="#000000" stroke-width="1" stroke-linecap="square"/>
<text x="473" y="368" fill="#000000" font-size="15" font-family="Arial" > PmNMT1</text>
<polyline points="423,351 423,361 471,361" fill="none" stroke="#000000" stroke-width="1" stroke-linecap="square"/>
<polyline points="385,334 385,350 423,350" fill="none" stroke="#000000" stroke-width="1" stroke-linecap="square"/>
<polyline points="371,305 371,333 385,333" fill="none" stroke="#000000" stroke-width="1" stroke-linecap="square"/>
<polyline points="342,256 342,304 371,304" fill="none" stroke="#000000" stroke-width="1" stroke-linecap="square"/>
<polyline points="323,319 323,255 342,255" fill="none" stroke="#000000" stroke-width="1" stroke-linecap="square"/>
<text x="394" y="390" fill="#000000" font-size="15" font-family="Arial" > LaNMT1</text>
<polyline points="323,320 323,383 392,383" fill="none" stroke="#000000" stroke-width="1" stroke-linecap="square"/>
<polyline points="290,362 290,319 323,319" fill="none" stroke="#000000" stroke-width="1" stroke-linecap="square"/>
<text x="378" y="412" fill="#000000" font-size="15" font-family="Arial" > EhNMT1</text>
<polyline points="290,363 290,405 376,405" fill="none" stroke="#000000" stroke-width="1" stroke-linecap="square"/>
<polyline points="113,218 113,362 290,362" fill="none" stroke="#000000" stroke-width="1" stroke-linecap="square"/>
<polyline points="40,322 40,217 113,217" fill="none" stroke="#000000" stroke-width="1" stroke-linecap="square"/>
<text x="613" y="434" fill="#000000" font-size="15" font-family="Arial" > EcSSUA</text>
<polyline points="40,323 40,427 611,427" fill="none" stroke="#000000" stroke-width="1" stroke-linecap="square"/>
<text x="490" y="190" fill="#000000" font-size="11" font-family="Tahoma" >98</text>
<text x="488" y="37" fill="#000000" font-size="11" font-family="Tahoma" >100</text>
<text x="484" y="103" fill="#000000" font-size="11" font-family="Tahoma" >97</text>
<text x="434" y="173" fill="#000000" font-size="11" font-family="Tahoma" >93</text>
<text x="364" y="148" fill="#000000" font-size="11" font-family="Tahoma" >97</text>
<text x="210" y="119" fill="#000000" font-size="11" font-family="Tahoma" >57</text>
<text x="160" y="67" fill="#000000" font-size="11" font-family="Tahoma" >45</text>
<text x="399" y="366" fill="#000000" font-size="11" font-family="Tahoma" >100</text>
<text x="272" y="378" fill="#000000" font-size="11" font-family="Tahoma" >92</text>
<text x="324" y="250" fill="#000000" font-size="11" font-family="Tahoma" >33</text>
<text x="305" y="314" fill="#000000" font-size="11" font-family="Tahoma" >54</text>
<text x="367" y="349" fill="#000000" font-size="11" font-family="Tahoma" >45</text>
<text x="353" y="320" fill="#000000" font-size="11" font-family="Tahoma" >49</text>
<text x="369" y="270" fill="#000000" font-size="11" font-family="Tahoma" >49</text>
<text x="390" y="251" fill="#000000" font-size="11" font-family="Tahoma" >69</text>
<text x="395" y="235" fill="#000000" font-size="11" font-family="Tahoma" >21</text>
<line x1="60" y1="464" x2="196" y2="464" stroke="#000000" stroke-width="1" stroke-linecap="square"/>
<line x1="60" y1="460" x2="60" y2="468" stroke="#000000" stroke-width="1" stroke-linecap="square"/>
<line x1="196" y1="460" x2="196" y2="468" stroke="#000000" stroke-width="1" stroke-linecap="square"/>
<text x="117" y="494" fill="#000000" font-size="11" font-family="MS Sans Serif" >0.50</text>
</svg>
